#!OML:ASF I:\Random Stuff\random\construction\7_22_03\Session 2\subj1.ASF
:FULLY-SPECIFIED
:DEGREES
1083
root 4.70958 17.2702 -10.5526 40.8291 -9.53535 -11.5536
lowerback 36.0136 -1.96532 -6.45071
upperback 13.7677 -5.36769 -10.4232
thorax -3.39071 -2.44639 -5.76775
lowerneck -12.4211 -3.81924 -12.8491
upperneck 30.7693 -1.49661 -1.44617
head 12.4893 -2.26698 1.43746
rclavicle 7.63333e-014 3.28989e-014
rhumerus -25.9742 12.4691 -46.0581
rradius 126.08
rwrist 14.3809
rhand -18.9586 25.0452
rfingers 7.12502
rthumb 7.34513 -4.80729
lclavicle 7.63333e-014 3.28989e-014
lhumerus 42.7418 -57.5318 53.6309
lradius 83.7844
lwrist 61.8914
lhand -14.6426 42.1703
lfingers 7.12502
lthumb -168.491 1331.83
rfemur -55.183 -5.28044 44.3593
rtibia 16.585
rfoot -2.32566 7.75004
rtoes -12.7629
lfemur -61.0251 6.11198 4.02468
ltibia 38.698
lfoot -13.2277 4.45402
ltoes -32.0783
1084
root 4.71681 17.2721 -10.5539 40.7477 -9.53101 -11.4668
lowerback 36.0872 -2.00244 -6.45985
upperback 13.7791 -5.42263 -10.45
thorax -3.40958 -2.47009 -5.77091
lowerneck -12.4729 -3.77398 -12.9706
upperneck 30.8693 -1.42444 -1.33571
head 12.5396 -2.24181 1.50926
rclavicle -2.22639e-014 8.57756e-014
rhumerus -25.9174 12.3932 -46.0219
rradius 126.043
rwrist 14.6233
rhand -18.8164 25.1497
rfingers 7.12502
rthumb 7.48236 -4.69793
lclavicle -2.22639e-014 8.57756e-014
lhumerus 42.9969 -57.72 53.4305
lradius 83.879
lwrist 61.9567
lhand -15.0114 42.4039
lfingers 7.12502
lthumb -168.846 1332.09
rfemur -55.1653 -5.37142 44.2559
rtibia 16.5937
rfoot -2.32581 7.74499
rtoes -13.1783
lfemur -61.0037 6.04199 3.89416
ltibia 38.6859
lfoot -13.1986 4.45388
ltoes -32.2914
1085
root 4.72319 17.271 -10.5561 40.6961 -9.52714 -11.4229
lowerback 36.1371 -2.0139 -6.45875
upperback 13.7889 -5.44084 -10.4627
thorax -3.41907 -2.47731 -5.77778
lowerneck -12.4516 -3.79672 -12.8791
upperneck 30.8916 -1.46405 -1.39089
head 12.5445 -2.25612 1.46743
rclavicle -6.36111e-014 -7.44449e-014
rhumerus -25.9045 12.2719 -45.9855
rradius 126.093
rwrist 14.8886
rhand -18.6145 25.2414
rfingers 7.12502
rthumb 7.67728 -4.59926
lclavicle -6.36111e-014 -7.44449e-014
lhumerus 43.2155 -57.8989 53.336
lradius 83.6371
lwrist 62.9131
lhand -15.1822 41.6618
lfingers 7.12502
lthumb -169.011 1331.35
rfemur -55.1634 -5.43521 44.207
rtibia 16.607
rfoot -2.30545 7.74021
rtoes -13.1519
lfemur -61.0117 6.04372 3.78145
ltibia 38.6922
lfoot -13.159 4.39322
ltoes -32.651
1086
root 4.72797 17.2695 -10.5588 40.6506 -9.51163 -11.4496
lowerback 36.1813 -2.01974 -6.39843
upperback 13.799 -5.43375 -10.4669
thorax -3.43036 -2.47191 -5.81499
lowerneck -12.4249 -3.81339 -12.8508
upperneck 30.8746 -1.49897 -1.39158
head 12.5332 -2.267 1.4579
rclavicle 3.18055e-014 4.22417e-014
rhumerus -25.9102 12.1505 -45.9396
rradius 126.16
rwrist 15.0649
rhand -18.5447 25.099
rfingers 7.12502
rthumb 7.74457 -4.73914
lclavicle 3.18055e-014 4.22417e-014
lhumerus 43.3921 -58.038 53.3312
lradius 83.7603
lwrist 63.5462
lhand -15.1873 41.8766
lfingers 7.12502
lthumb -169.016 1331.57
rfemur -55.1384 -5.45861 44.2287
rtibia 16.6319
rfoot -2.298 7.7378
rtoes -13.0021
lfemur -60.9983 6.07715 3.76144
ltibia 38.7158
lfoot -13.1412 4.33671
ltoes -32.9094
1087
root 4.73138 17.2704 -10.5615 40.5968 -9.51564 -11.4457
lowerback 36.1964 -2.03296 -6.34757
upperback 13.8246 -5.43487 -10.4871
thorax -3.41624 -2.4708 -5.86279
lowerneck -12.4328 -3.82214 -12.9159
upperneck 30.8677 -1.51198 -1.33088
head 12.5345 -2.27216 1.49001
rclavicle 6.04305e-014 -3.22031e-014
rhumerus -25.8693 12.0366 -45.8783
rradius 126.191
rwrist 15.1586
rhand -18.4377 24.9692
rfingers 7.12502
rthumb 7.84787 -4.86516
lclavicle 6.04305e-014 -3.22031e-014
lhumerus 43.5203 -58.1563 53.3672
lradius 83.9497
lwrist 64.2595
lhand -15.4542 42.1154
lfingers 7.12502
lthumb -169.273 1331.82
rfemur -55.1018 -5.48051 44.2107
rtibia 16.6416
rfoot -2.30072 7.73723
rtoes -13.0309
lfemur -60.9812 6.10151 3.70561
ltibia 38.7601
lfoot -13.1717 4.22261
ltoes -32.6584
1088
root 4.73415 17.27 -10.5653 40.6163 -9.55382 -11.4667
lowerback 36.1566 -2.02008 -6.34971
upperback 13.8272 -5.41711 -10.4917
thorax -3.39888 -2.46343 -5.87393
lowerneck -12.4173 -3.8328 -13.0353
upperneck 30.8584 -1.5285 -1.23524
head 12.5318 -2.28048 1.54426
rclavicle -1.90833e-014 -1.32192e-014
rhumerus -25.815 11.933 -45.8073
rradius 126.203
rwrist 15.2201
rhand -18.1431 25.0624
rfingers 7.12502
rthumb 8.13219 -4.76117
lclavicle -1.90833e-014 -1.32192e-014
lhumerus 43.5706 -58.2633 53.5362
lradius 84.0987
lwrist 64.8298
lhand -15.7601 42.4259
lfingers 7.12502
lthumb -169.568 1332.15
rfemur -55.1073 -5.42673 44.1929
rtibia 16.6257
rfoot -2.28028 7.70903
rtoes -12.9644
lfemur -61.0198 6.14515 3.69706
ltibia 38.819
lfoot -13.2141 4.1674
ltoes -32.3339
1089
root 4.73734 17.2654 -10.5706 40.6875 -9.60914 -11.5433
lowerback 36.1114 -1.99859 -6.36712
upperback 13.8081 -5.39595 -10.4901
thorax -3.40067 -2.45515 -5.871
lowerneck -12.3959 -3.82444 -13.0716
upperneck 30.8041 -1.53165 -1.18118
head 12.5057 -2.27707 1.57096
rclavicle -3.18055e-014 -1.01579e-013
rhumerus -25.7566 11.8601 -45.7544
rradius 126.215
rwrist 15.3845
rhand -17.808 25.1951
rfingers 7.12502
rthumb 8.45562 -4.6156
lclavicle -3.18055e-014 -1.01579e-013
lhumerus 43.5586 -58.3501 53.7407
lradius 84.2652
lwrist 65.1503
lhand -15.8815 42.7935
lfingers 7.12502
lthumb -169.686 1332.52
rfemur -55.1433 -5.3029 44.2116
rtibia 16.6016
rfoot -2.25083 7.69664
rtoes -12.9031
lfemur -61.0843 6.18626 3.79587
ltibia 38.8809
lfoot -13.2325 4.25211
ltoes -32.1826
